HIERARCHY
ROOT Joint1
{
	OFFSET 0.000000 0.000000 0.000000
	CHANNELS 6 Xposition Yposition Zposition Xrotation Yrotation Zrotation
	JOINT Joint2
	{
		OFFSET -0.000000 0.000000 1.456275
		CHANNELS 6 Xposition Yposition Zposition Xrotation Yrotation Zrotation
		JOINT Joint3
		{
			OFFSET -0.000000 0.000002 1.471446
			CHANNELS 6 Xposition Yposition Zposition Xrotation Yrotation Zrotation
			JOINT Joint4
			{
				OFFSET 0.625745 0.000000 0.917755
				CHANNELS 6 Xposition Yposition Zposition Xrotation Yrotation Zrotation
				JOINT Joint5
				{
					OFFSET -0.629534 0.000001 0.940221
					CHANNELS 6 Xposition Yposition Zposition Xrotation Yrotation Zrotation
					JOINT Joint6
					{
						OFFSET -0.000001 0.113772 1.960660
						CHANNELS 6 Xposition Yposition Zposition Xrotation Yrotation Zrotation
						JOINT Joint7
						{
							OFFSET -0.669733 -0.113771 0.388340
							CHANNELS 6 Xposition Yposition Zposition Xrotation Yrotation Zrotation
							End Site
							{
								OFFSET 0.005509 0.005509 0.438980
							}
						}
					}
				}
			}
		}
	}
}
MOTION
Frames: 22
Frame Time: 0.041667
0.000000 0.000000 0.000000 -0.000000 1.019410 84.459039 -0.000000 0.000000 1.456275 0.000000 -38.892053 -0.000000 -0.000000 0.000002 1.471445 -0.000008 -1.133455 120.431535 0.625744 0.000000 0.917755 0.000005 9.873183 0.000003 -0.629534 0.000001 0.940221 -0.000002 1.709737 20.997084 -0.000001 0.113773 1.960661 -88.303875 119.118936 -0.000001 -0.669733 -0.113771 0.388340 -1.191192 1.655867 -73.485609 
0.000000 0.000000 0.000000 -0.000000 1.019410 84.347761 -0.000000 -0.000000 1.456275 -0.000000 -38.900075 -0.000000 -0.000000 0.000002 1.471446 -0.000008 -1.133457 120.272842 0.625745 0.000000 0.917755 0.000005 10.038048 0.000002 -0.629533 0.000001 0.940221 0.000002 1.709736 20.969410 -0.000000 0.113773 1.960660 -88.303875 119.080537 -0.000004 -0.669734 -0.113771 0.388340 -1.186902 1.653554 -73.211158 
0.000000 0.000000 0.000000 -0.000000 1.019410 84.167226 -0.000000 0.000000 1.456275 -0.000000 -38.913090 -0.000001 -0.000000 0.000002 1.471446 -0.000008 -1.133456 120.015385 0.625745 0.000000 0.917755 0.000002 10.305506 0.000002 -0.629534 0.000001 0.940221 -0.000003 1.709738 20.924513 -0.000001 0.113772 1.960661 -88.303875 119.018259 0.000003 -0.669733 -0.113771 0.388340 -1.179917 1.649842 -72.765898 
0.000000 0.000000 0.000000 -0.000000 1.019410 83.921496 -0.000000 0.000000 1.456275 -0.000000 -38.930804 -0.000000 -0.000000 0.000002 1.471446 -0.000008 -1.133455 119.664942 0.625745 0.000001 0.917755 -0.000001 10.669573 0.000001 -0.629534 0.000001 0.940221 0.000000 1.709736 20.863405 -0.000001 0.113772 1.960662 -88.303875 118.933497 0.000006 -0.669733 -0.113771 0.388340 -1.170364 1.644879 -72.159815 
0.000000 0.000000 0.000000 -0.000000 1.019410 83.614595 -0.000000 0.000000 1.456275 -0.000000 -38.952931 0.000000 -0.000000 0.000002 1.471446 -0.000007 -1.133455 119.227263 0.625744 0.000000 0.917755 0.000002 11.124257 0.000000 -0.629534 0.000001 0.940220 -0.000001 1.709737 20.787080 -0.000001 0.113772 1.960660 -88.303868 118.827615 -0.000004 -0.669733 -0.113771 0.388340 -1.158358 1.638824 -71.402866 
0.000000 0.000000 0.000000 -0.000000 1.019410 83.250567 -0.000000 0.000000 1.456275 0.000000 -38.979179 -0.000000 -0.000000 0.000002 1.471446 -0.000008 -1.133455 118.708114 0.625744 0.000001 0.917755 -0.000001 11.663578 0.000002 -0.629534 0.000001 0.940220 -0.000002 1.709735 20.696549 -0.000001 0.113772 1.960660 -88.303882 118.702035 -0.000001 -0.669733 -0.113772 0.388340 -1.144020 1.631848 -70.505031 
0.000000 0.000000 0.000000 -0.000000 1.019410 82.833461 -0.000000 -0.000000 1.456275 -0.000000 -39.009246 -0.000000 -0.000000 0.000002 1.471446 -0.000007 -1.133454 118.113259 0.625744 0.000000 0.917755 -0.000003 12.281544 0.000001 -0.629534 0.000001 0.940221 -0.000004 1.709735 20.592817 -0.000001 0.113772 1.960661 -88.303875 118.558137 0.000003 -0.669734 -0.113771 0.388340 -1.127459 1.624128 -69.476274 
0.000000 0.000000 0.000000 -0.000000 1.019410 82.367300 -0.000000 -0.000000 1.456275 -0.000001 -39.042843 -0.000001 -0.000000 0.000002 1.471446 -0.000007 -1.133455 117.448463 0.625745 0.000001 0.917755 0.000002 12.972167 0.000002 -0.629534 0.000001 0.940221 0.000003 1.709736 20.476888 -0.000001 0.113772 1.960661 -88.303875 118.397340 -0.000001 -0.669733 -0.113772 0.388341 -1.108788 1.615860 -68.326549 
0.000000 0.000000 0.000000 -0.000000 1.019410 81.856149 -0.000000 0.000000 1.456275 -0.000000 -39.079703 0.000001 -0.000000 0.000002 1.471446 -0.000008 -1.133454 116.719491 0.625744 0.000000 0.917755 0.000001 13.729466 0.000000 -0.629533 0.000001 0.940221 -0.000006 1.709739 20.349765 -0.000001 0.113772 1.960661 -88.303875 118.220999 0.000003 -0.669734 -0.113771 0.388340 -1.088130 1.607225 -67.065832 
0.000000 0.000000 0.000000 -0.000000 1.019410 81.300473 -0.000000 0.000000 1.456275 -0.000001 -39.119758 0.000001 -0.000000 0.000002 1.471446 -0.000008 -1.133456 115.927039 0.625745 0.000000 0.917755 -0.000000 14.552710 0.000002 -0.629534 0.000001 0.940220 -0.000000 1.709735 20.211576 -0.000001 0.113772 1.960661 -88.303868 118.029316 -0.000004 -0.669733 -0.113771 0.388341 -1.065465 1.598351 -65.695348 
0.000000 0.000000 0.000000 -0.000000 1.019410 80.686609 -0.000000 0.000000 1.456275 0.000001 -39.164008 0.000000 -0.000000 0.000002 1.471446 -0.000007 -1.133454 115.051572 0.625745 0.000000 0.917755 0.000004 15.462189 0.000000 -0.629534 0.000001 0.940220 -0.000004 1.709736 20.058908 -0.000001 0.113773 1.960660 -88.303882 117.817539 0.000001 -0.669733 -0.113771 0.388340 -1.040181 1.589185 -64.181293 
0.000000 0.000000 0.000000 -0.000000 1.019410 79.997279 -0.000000 0.000000 1.456275 0.000001 -39.213707 -0.000002 -0.000000 0.000002 1.471446 -0.000007 -1.133456 114.068517 0.625745 0.000000 0.917755 0.000002 16.483449 0.000002 -0.629534 0.000001 0.940220 0.000001 1.709737 19.887486 -0.000001 0.113772 1.960661 -88.303875 117.579739 -0.000001 -0.669733 -0.113773 0.388339 -1.011518 1.579689 -62.481150 
0.000000 0.000000 0.000000 -0.000000 1.019410 79.215264 -0.000000 -0.000000 1.456275 -0.000000 -39.270080 0.000001 -0.000000 0.000002 1.471446 -0.000007 -1.133456 112.953249 0.625744 0.000000 0.917755 0.000003 17.642039 -0.000000 -0.629534 0.000001 0.940221 -0.000004 1.709735 19.693003 -0.000001 0.113772 1.960660 -88.303868 117.309974 0.000001 -0.669734 -0.113771 0.388340 -0.978670 1.569955 -60.552393 
0.000000 0.000000 0.000000 -0.000000 1.019410 78.339367 -0.000000 0.000000 1.456275 0.000001 -39.333226 0.000001 -0.000000 0.000002 1.471446 -0.000006 -1.133457 111.704124 0.625744 0.000000 0.917755 0.000002 18.939708 -0.000000 -0.629534 0.000001 0.940220 -0.000002 1.709739 19.475175 -0.000001 0.113772 1.960661 -88.303868 117.007807 0.000009 -0.669733 -0.113771 0.388341 -0.941521 1.560369 -58.392114 
0.000000 0.000000 0.000000 -0.000000 1.019410 77.432693 -0.000000 -0.000000 1.456275 -0.000000 -39.398587 -0.000001 -0.000000 0.000002 1.471446 -0.000008 -1.133454 110.411094 0.625745 0.000000 0.917755 0.000003 20.282988 0.000000 -0.629534 0.000001 0.940221 0.000001 1.709738 19.249693 -0.000001 0.113772 1.960661 -88.303868 116.695011 0.000009 -0.669733 -0.113771 0.388340 -0.902711 1.551929 -56.155910 
0.000000 0.000000 0.000000 -0.000000 1.019410 76.574378 -0.000000 0.000000 1.456275 0.000000 -39.460465 0.000000 -0.000000 0.000002 1.471446 -0.000007 -1.133458 109.187028 0.625745 0.000000 0.917755 0.000001 21.554612 0.000002 -0.629534 0.000001 0.940221 -0.000002 1.709738 19.036234 -0.000001 0.113772 1.960660 -88.303875 116.398936 0.000003 -0.669733 -0.113771 0.388340 -0.865695 1.545339 -54.038992 
0.000000 0.000000 0.000000 -0.000000 1.019410 75.801077 -0.000000 0.000000 1.456275 -0.000000 -39.516210 0.000000 -0.000000 0.000002 1.471445 -0.000006 -1.133453 108.084199 0.625745 0.000000 0.917755 0.000006 22.700284 0.000000 -0.629534 0.000001 0.940221 -0.000000 1.709736 18.843920 -0.000001 0.113772 1.960660 -88.303882 116.132176 0.000004 -0.669733 -0.113772 0.388339 -0.832155 1.540578 -52.131754 
0.000000 0.000000 0.000000 -0.000000 1.019410 74.979412 -0.000000 -0.000000 1.456275 -0.000001 -39.575448 0.000001 -0.000000 0.000002 1.471446 -0.000006 -1.133458 106.912411 0.625745 0.000000 0.917755 0.000004 23.917612 -0.000000 -0.629533 0.000001 0.940221 -0.000002 1.709739 18.639579 -0.000001 0.113772 1.960661 -88.303875 115.848724 0.000010 -0.669733 -0.113771 0.388340 -0.796365 1.536743 -50.105226 
0.000000 0.000000 0.000000 -0.000000 1.019410 73.933499 -0.000000 0.000000 1.456275 -0.000001 -39.650846 -0.000001 -0.000000 0.000002 1.471446 -0.000006 -1.133459 105.420794 0.625744 0.000000 0.917755 0.000001 25.467178 0.000000 -0.629533 0.000001 0.940221 -0.000001 1.709738 18.379464 -0.000001 0.113772 1.960660 -88.303875 115.487912 0.000005 -0.669733 -0.113771 0.388341 -0.750652 1.533696 -47.525611 
0.000000 0.000000 0.000000 -0.000000 1.019410 72.590841 -0.000000 -0.000000 1.456275 0.000001 -39.747644 -0.000002 -0.000001 0.000002 1.471446 -0.000007 -1.133457 103.506012 0.625744 0.000000 0.917755 0.000002 27.456372 -0.000001 -0.629534 0.000001 0.940221 -0.000004 1.709741 18.045558 -0.000001 0.113772 1.960661 -88.303875 115.024730 0.000009 -0.669733 -0.113771 0.388339 -0.691845 1.532799 -44.214140 
0.000000 0.000000 0.000000 -0.000000 1.019410 71.292613 -0.000000 0.000000 1.456275 -0.000000 -39.841235 0.000001 -0.000001 0.000002 1.471446 -0.000006 -1.133453 101.654566 0.625744 0.000000 0.917755 0.000001 29.379755 0.000000 -0.629533 0.000001 0.940220 -0.000004 1.709736 17.722698 -0.000001 0.113772 1.960661 -88.303868 114.576881 0.000005 -0.669733 -0.113771 0.388340 -0.635034 1.535166 -41.012233 
0.000000 0.000000 0.000000 -0.000000 1.019410 70.355279 -0.000000 -0.000000 1.456275 0.000002 -39.908809 0.000002 -0.000000 0.000002 1.471446 -0.000007 -1.133451 100.317802 0.625745 0.000000 0.917755 -0.000002 30.768452 0.000001 -0.629534 0.000001 0.940221 -0.000002 1.709740 17.489594 -0.000001 0.113772 1.960660 -88.303875 114.253512 0.000005 -0.669734 -0.113771 0.388341 -0.594137 1.538847 -38.700422 
